# xmcd
#
# Track frame offsets: 
#        150
#        11802
#        26715
#        40425
#        55362
#        70167
#        81032
#        94502
#        107717
#        119667
#        132862
#        148817
#        160675
#        170584
#        196327
#
# Disc length: 2814 seconds
#
# Revision: 0
# Processed by: cddbd v1.5.1PL0 Copyright (c) Steve Scherf et al.
# Submitted via: ExactAudioCopy v0.95a5
#
DISCID=d30afc0f
DTITLE=Dane Anthony and The Sons of Thunder - Part 2
DYEAR=1995
DGENRE=R&B
TTITLE0=Sweet Soul Music
TTITLE1=Mickey's Monkee
TTITLE2=We're Havin' A Party
TTITLE3=Stay
TTITLE4=Shotgun
TTITLE5=Rockin' Pneumonia And Boogie Woogie Flu
TTITLE6=Down on the Corner
TTITLE7=Johnny B. Goode
TTITLE8=Hold On I'm Comin'
TTITLE9=Cool Jerk
TTITLE10=Young Blood
TTITLE11=Tossin' and Turnin'
TTITLE12=You Can't Sit Down
TTITLE13=Stand By Me
TTITLE14=Soul Finger
EXTD=
EXTT0=
EXTT1=
EXTT2=
EXTT3=
EXTT4=
EXTT5=
EXTT6=
EXTT7=
EXTT8=
EXTT9=
EXTT10=
EXTT11=
EXTT12=
EXTT13=
EXTT14=
PLAYORDER=
